<svg width="1728" height="1117" viewBox="0 0 1728 1117" fill="none" xmlns="http://www.w3.org/2000/svg">
<g clip-path="url(#clip0_1_2)">
<g opacity="0.3" filter="url(#filter0_f_1_2)">
<path opacity="0.5" d="M550.033 314.678C556.943 338.507 583.793 349.979 587.953 375.588C588.543 382.478 596.073 395.428 621.463 392.111C645.933 406.336 721.693 378.697 740.193 402.471C753.813 419.973 768.803 441.802 763.513 473.272C759.433 497.536 745.853 521.454 732.093 542.105C712.153 572.018 688.623 599.223 663.203 620.762C580.363 690.978 485.513 709.256 403.433 709.506C303.423 709.816 216.783 671.193 143.853 609.425C113.773 583.952 86.8332 554.466 66.1232 516.932C47.0632 482.375 31.5532 443.738 19.5832 402.834C4.33323 350.763 -4.25679 292.381 2.13321 229.216C6.98321 181.174 27.5932 135.361 56.1332 93.5378C95.1332 36.3608 147.563 3.89574 198.333 0.23674C229.653 -2.01926 264.423 11.5477 265.873 53.8977C266.973 86.2047 252.053 122.514 242.373 155.683C235.913 177.849 227.103 209.242 241.873 220.803C266.853 240.36 301.643 245.977 333.143 249.938C373.383 254.998 416.463 244.109 458.343 241.446C482.463 239.912 502.003 251.741 519.163 266.208C532.953 277.841 544.103 294.249 550.033 314.678Z" fill="#0070F3"/>
</g>
<g opacity="0.5" filter="url(#filter1_f_1_2)">
<path opacity="0.5" d="M1259.49 1111.05C1255.25 1136.67 1277.08 1162.53 1269.2 1188.19C1266.55 1194.79 1268.07 1210.88 1295.42 1222.47C1313.54 1249.46 1403.52 1267.94 1411.06 1300.17C1416.63 1323.89 1421.53 1352.36 1401.28 1377.89C1385.67 1397.59 1360.57 1411.51 1336.84 1422.34C1302.47 1438.05 1265.7 1449.23 1229.72 1454.18C1112.41 1470.3 1007.47 1432.34 924.019 1385.36C822.332 1328.11 752.613 1243.2 707.767 1145.15C689.271 1104.71 675.851 1062.43 672.569 1016.43C669.548 974.073 672.068 930.06 679.242 886.018C688.374 829.951 707.251 771.98 743.594 718.28C771.234 677.438 813.813 647.677 862.553 626.101C929.187 596.604 997.764 597.27 1051.04 623.15C1083.9 639.112 1112.8 671.438 1094.25 710.737C1080.1 740.715 1047.78 765.109 1022.28 789.675C1005.24 806.09 981.452 829.535 990.983 848.532C1007.1 880.664 1039.77 905.78 1069.89 927.497C1108.35 955.24 1157.23 970.123 1201.01 991.793C1226.23 1004.27 1240.48 1026.26 1251.06 1049.27C1259.57 1067.77 1263.13 1089.09 1259.49 1111.05Z" fill="#7928CA"/>
</g>
<g opacity="0.3" filter="url(#filter2_f_1_2)">
<path opacity="0.5" d="M1558.41 521.093C1576.89 537.64 1605.74 533.143 1622.83 552.658C1626.99 558.189 1640.24 565.182 1660.02 548.916C1688.3 548.015 1737.91 484.434 1766.2 494.795C1787.02 502.422 1811.3 512.992 1823.49 542.485C1832.88 565.225 1834.04 592.706 1833.31 617.509C1832.25 653.448 1826.7 688.987 1816.56 720.715C1783.51 824.164 1712.75 889.917 1643.27 933.615C1558.61 986.873 1464.67 1000.02 1370.09 986.282C1331.09 980.611 1292.61 969.878 1255.16 949.017C1220.69 929.806 1187.06 905.256 1155.24 876.91C1114.72 840.827 1076.5 795.864 1048.45 738.915C1027.11 695.597 1020.31 645.822 1022.36 595.235C1025.14 526.077 1052.41 470.763 1093.52 440.76C1118.89 422.253 1155.57 415.336 1179.24 450.485C1197.29 477.302 1203.87 516.001 1213.24 549.259C1219.5 571.482 1228.66 602.774 1247.32 604.752C1278.86 608.103 1311.34 594.434 1340.16 581.107C1376.97 564.075 1407.74 532.014 1441.84 507.566C1461.49 493.485 1484.32 493.164 1506.54 496.342C1524.4 498.901 1542.55 506.908 1558.41 521.093Z" fill="#0070F3"/>
</g>
</g>
<defs>
<filter id="filter0_f_1_2" x="-250" y="-250" width="1264.6" height="1209.51" filterUnits="userSpaceOnUse" color-interpolation-filters="sRGB">
<feFlood flood-opacity="0" result="BackgroundImageFix"/>
<feBlend mode="normal" in="SourceGraphic" in2="BackgroundImageFix" result="shape"/>
<feGaussianBlur stdDeviation="125" result="effect1_foregroundBlur_1_2"/>
</filter>
<filter id="filter1_f_1_2" x="421.315" y="353.85" width="1244.62" height="1354.1" filterUnits="userSpaceOnUse" color-interpolation-filters="sRGB">
<feFlood flood-opacity="0" result="BackgroundImageFix"/>
<feBlend mode="normal" in="SourceGraphic" in2="BackgroundImageFix" result="shape"/>
<feGaussianBlur stdDeviation="125" result="effect1_foregroundBlur_1_2"/>
</filter>
<filter id="filter2_f_1_2" x="772.013" y="175.488" width="1311.47" height="1065.86" filterUnits="userSpaceOnUse" color-interpolation-filters="sRGB">
<feFlood flood-opacity="0" result="BackgroundImageFix"/>
<feBlend mode="normal" in="SourceGraphic" in2="BackgroundImageFix" result="shape"/>
<feGaussianBlur stdDeviation="125" result="effect1_foregroundBlur_1_2"/>
</filter>
<clipPath id="clip0_1_2">
<rect width="1728" height="1117" fill="white"/>
</clipPath>
</defs>
</svg>
